<svg width="26" height="26" viewBox="0 0 26 26" fill="none" xmlns="http://www.w3.org/2000/svg">
<path d="M24.8415 17V22.24C24.8456 22.6253 24.7661 23.0068 24.6086 23.3584C24.4511 23.71 24.2193 24.0233 23.9292 24.2767C23.639 24.5302 23.2973 24.7177 22.9277 24.8265C22.5581 24.9352 22.1694 24.9626 21.7882 24.9067C16.5041 24.2279 11.5961 21.8103 7.83748 18.0348C4.07885 14.2592 1.68326 9.34042 1.02819 4.05337C0.972484 3.67331 0.999548 3.28569 1.10753 2.91705C1.21551 2.54841 1.40186 2.20746 1.65382 1.91751C1.90578 1.62756 2.21741 1.39547 2.56738 1.23712C2.91735 1.07877 3.2974 0.997902 3.68152 1.00004H8.84152C9.17114 0.998042 9.48982 1.11821 9.73605 1.33735C9.98227 1.5565 10.1386 1.85908 10.1749 2.18671C10.3072 3.93414 10.7591 5.64245 11.5082 7.22671C11.6366 7.52675 11.6506 7.86347 11.5474 8.1731C11.4442 8.48273 11.231 8.74375 10.9482 8.90671L9.80152 9.56004C9.63624 9.65094 9.49213 9.77588 9.37871 9.9266C9.26528 10.0773 9.18513 10.2504 9.14354 10.4344C9.10196 10.6184 9.09988 10.8091 9.13746 10.9939C9.17503 11.1788 9.2514 11.3536 9.36152 11.5067C10.6806 13.439 12.3493 15.1076 14.2815 16.4267C14.4347 16.5368 14.6094 16.6132 14.7943 16.6508C14.9791 16.6883 15.1699 16.6863 15.3538 16.6447C15.5378 16.6031 15.7109 16.5229 15.8616 16.4095C16.0123 16.2961 16.1373 16.152 16.2282 15.9867L16.8815 14.84C17.0542 14.5536 17.3283 14.3424 17.6494 14.2486C17.9704 14.1547 18.3151 14.185 18.6149 14.3334C20.1991 15.0825 21.9074 15.5344 23.6549 15.6667C23.9825 15.703 24.2851 15.8593 24.5042 16.1055C24.7234 16.3517 24.8435 16.6704 24.8415 17Z" stroke="#3E3E36" stroke-linecap="round" stroke-linejoin="round"/>
</svg>
